# xmcd
#
# Track frame offsets:
# 150
# 12116
# 23146
# 29074
# 40985
# 60802
# 74132
# 83726
# 91129
# 102447
# 108585
# 117849
# 126479
# 140385
# 149058
# 157006
# 168568
# 176484
# 187856
# 196511
# 207801
# 215130
# 226140
# 237777
# 246299
# 261457
# 270810
# 277537
# 281473
# 290645
# 294120
#
# Disc length: 4006 seconds
#
# Revision: 0
# Processed by: cddbd v1.5.1PL0 Copyright (c) Steve Scherf et al.
# Submitted via: Audion 3.0.2 (http://www.panic.com/audion/)
#
DISCID=c20fa41f
DTITLE=THE KIDS - 1ST and 2ND
DYEAR=1900
DGENRE=
TTITLE0=this is rock'n roll
TTITLE1=do you love the nazi's
TTITLE2=bloody belgium
TTITLE3=for the fret
TTITLE4=baby that's alright - fascist cops
TTITLE5=i wanna get a job in the city
TTITLE6=i don't care
TTITLE7=i feel alright
TTITLE8=old dj's
TTITLE9=i'll get you
TTITLE10=money is all i need
TTITLE11=the city is dead
TTITLE12=jesus christ
TTITLE13=don't wanna be a fat boy
TTITLE14=razorblades for sale
TTITLE15=sixteen
TTITLE16=we are the prisoners
TTITLE17=radio radio.
TTITLE18=rock over belgium
TTITLE19=no monarchy
TTITLE20=sex queen
TTITLE21=naughty boys
TTITLE22=dead industry
TTITLE23=runaway
TTITLE24=through the night
TTITLE25=A
TTITLE26=A
TTITLE27=A
TTITLE28=A
TTITLE29=A
TTITLE30=A
EXTD=
EXTT0=
EXTT1=
EXTT2=
EXTT3=
EXTT4=
EXTT5=
EXTT6=
EXTT7=
EXTT8=
EXTT9=
EXTT10=
EXTT11=
EXTT12=
EXTT13=
EXTT14=
EXTT15=
EXTT16=
EXTT17=
EXTT18=
EXTT19=
EXTT20=
EXTT21=
EXTT22=
EXTT23=
EXTT24=
EXTT25=
EXTT26=
EXTT27=
EXTT28=
EXTT29=
EXTT30=
PLAYORDER=
